<?xml version="1.0" encoding="UTF-8" standalone="no"?>
<!DOCTYPE svg PUBLIC "-//W3C//DTD SVG 1.1//EN" "http://www.w3.org/Graphics/SVG/1.1/DTD/svg11.dtd">
<svg width="100%" height="100%" viewBox="0 0 600 600" version="1.1" xmlns="http://www.w3.org/2000/svg" xmlns:xlink="http://www.w3.org/1999/xlink" xml:space="preserve" xmlns:serif="http://www.serif.com/" style="fill-rule:evenodd;clip-rule:evenodd;stroke-linecap:round;stroke-linejoin:round;stroke-miterlimit:1.5;">
    <g transform="matrix(1,0,0,1,-100,-100)">
        <g transform="matrix(1.17647,0,0,1.17647,-81.1765,-109.412)">
            <path d="M664,305.5C664,235.131 606.869,178 536.5,178L281.5,178C211.131,178 154,235.131 154,305.5L154,560.5C154,630.869 211.131,688 281.5,688L536.5,688C606.869,688 664,630.869 664,560.5L664,305.5Z" style="fill:rgb(255,175,155);"/>
            <clipPath id="_clip1">
                <path d="M664,305.5C664,235.131 606.869,178 536.5,178L281.5,178C211.131,178 154,235.131 154,305.5L154,560.5C154,630.869 211.131,688 281.5,688L536.5,688C606.869,688 664,630.869 664,560.5L664,305.5Z"/>
            </clipPath>
            <g clip-path="url(#_clip1)">
                <g transform="matrix(0.906667,0,0,0.85,46.3333,127)">
                    <path d="M260.027,298.609C259.598,299.524 259.375,300.532 259.375,301.555L259.375,393.413C259.375,395.16 260.026,396.835 261.184,398.071C262.342,399.306 263.913,400 265.55,400C273.204,400 286.171,400 293.825,400C295.462,400 297.033,399.306 298.191,398.071C299.349,396.835 300,395.16 300,393.413C300,387.585 300,380 300,380L500,380C500,380 500,387.585 500,393.413C500,395.16 500.651,396.835 501.809,398.071C502.967,399.306 504.538,400 506.175,400C513.705,400 526.354,400 533.866,400C537.26,400 540.018,397.078 540.041,393.457C540.168,373.189 540.549,312.177 540.615,301.578C540.622,300.541 540.398,299.516 539.963,298.588C538.671,295.832 535.938,290 535.938,290C535.938,290 540.048,290 543.825,290C545.462,290 547.033,289.306 548.191,288.071C549.349,286.835 550,285.16 550,283.413C550,280.386 550,276.806 550,273.788C550,270.178 547.276,267.241 543.892,267.202C536.947,267.121 526.563,267 526.563,267C526.563,267 507.328,218.484 501.594,204.022C500.628,201.584 498.388,200 495.907,200C470.076,200 329.924,200 304.093,200C301.612,200 299.372,201.584 298.406,204.022C292.672,218.484 273.438,267 273.438,267C273.438,267 263.053,267.121 256.108,267.202C252.724,267.241 250,270.178 250,273.788C250,276.806 250,280.386 250,283.413C250,285.16 250.651,286.835 251.809,288.071C252.967,289.306 254.538,290 256.175,290C259.952,290 264.063,290 264.063,290C264.063,290 261.315,295.861 260.027,298.609Z" style="fill:white;"/>
                    <clipPath id="_clip2">
                        <path d="M260.027,298.609C259.598,299.524 259.375,300.532 259.375,301.555L259.375,393.413C259.375,395.16 260.026,396.835 261.184,398.071C262.342,399.306 263.913,400 265.55,400C273.204,400 286.171,400 293.825,400C295.462,400 297.033,399.306 298.191,398.071C299.349,396.835 300,395.16 300,393.413C300,387.585 300,380 300,380L500,380C500,380 500,387.585 500,393.413C500,395.16 500.651,396.835 501.809,398.071C502.967,399.306 504.538,400 506.175,400C513.705,400 526.354,400 533.866,400C537.26,400 540.018,397.078 540.041,393.457C540.168,373.189 540.549,312.177 540.615,301.578C540.622,300.541 540.398,299.516 539.963,298.588C538.671,295.832 535.938,290 535.938,290C535.938,290 540.048,290 543.825,290C545.462,290 547.033,289.306 548.191,288.071C549.349,286.835 550,285.16 550,283.413C550,280.386 550,276.806 550,273.788C550,270.178 547.276,267.241 543.892,267.202C536.947,267.121 526.563,267 526.563,267C526.563,267 507.328,218.484 501.594,204.022C500.628,201.584 498.388,200 495.907,200C470.076,200 329.924,200 304.093,200C301.612,200 299.372,201.584 298.406,204.022C292.672,218.484 273.438,267 273.438,267C273.438,267 263.053,267.121 256.108,267.202C252.724,267.241 250,270.178 250,273.788C250,276.806 250,280.386 250,283.413C250,285.16 250.651,286.835 251.809,288.071C252.967,289.306 254.538,290 256.175,290C259.952,290 264.063,290 264.063,290C264.063,290 261.315,295.861 260.027,298.609Z"/>
                    </clipPath>
                    <g clip-path="url(#_clip2)">
                        <g transform="matrix(0.9375,0,0,0.9375,6.25,-18.75)">
                            <circle cx="300" cy="360" r="20" style="fill:rgb(255,175,156);"/>
                        </g>
                        <g transform="matrix(0.9375,0,0,0.9375,226.563,-18.75)">
                            <circle cx="300" cy="360" r="20" style="fill:rgb(255,175,156);"/>
                        </g>
                        <g transform="matrix(0.9375,0,0,1,25,-40)">
                            <path d="M330,365C360.212,400.471 439.895,400.544 470,365" style="fill:none;stroke:rgb(255,175,156);stroke-width:17px;"/>
                        </g>
                        <g transform="matrix(0.9375,0,0,1,25,-40)">
                            <path d="M305.202,250C302.052,250 299.211,251.894 297.999,254.802C292.069,269.034 275,310 275,310C361.261,302.374 437.928,302.389 525,310C525,310 507.931,269.034 502.001,254.802C500.789,251.894 497.948,250 494.798,250C466.701,250 333.299,250 305.202,250Z" style="fill:rgb(255,175,156);"/>
                        </g>
                    </g>
                </g>
                <g transform="matrix(1.65278,0,0,1.65278,-171.833,-115.156)">
                    <circle cx="318" cy="290" r="18" style="fill:none;stroke:white;stroke-width:4.11px;"/>
                </g>
                <g transform="matrix(0.65083,0,0,0.65083,111.965,178.482)">
                    <text x="240px" y="600px" style="font-family:'Bauhaus93', 'Bauhaus 93', fantasy;font-size:139.605px;fill:white;">AirRnD</text>
                </g>
            </g>
        </g>
    </g>
</svg>
